<?xml version="1.0" encoding="UTF-8"?><svg id="a" xmlns="http://www.w3.org/2000/svg" viewBox="0 0 595.28 595.28"><defs><style>.b{fill:#4925b9;}</style></defs><path class="b" d="M357,295.92s-.02-.05-.03-.07c-2.55-6.11-6.19-10.64-10.94-13.61-4.75-2.97-10.6-4.45-17.56-4.45-3.9,0-8.19,.51-12.85,1.53-4.67,1.02-8.87,2.63-12.6,4.83v71.61c1.99,.82,3.58,1.33,4.8,1.65,2.19,.64,5.06,1.13,7.54,1.45,3.29,.42,6.66,.56,10.12,.59,.43,0,.84,.06,1.27,.06,8.81,0,15.67-1.78,20.59-5.34,4.91-3.56,8.39-8.3,10.42-14.24,2.03-5.93,3.05-12.71,3.05-20.34,0-9.66-1.27-17.54-3.81-23.64v-.02Z"/><path class="b" d="M430.1,143.87H165.18c-11.77,0-21.31,9.54-21.31,21.31V430.1c0,11.77,9.54,21.31,21.31,21.31H430.1c11.77,0,21.31-9.54,21.31-21.31V165.18c0-11.77-9.54-21.31-21.31-21.31Zm-176.57,231.39h-32.57v-107.84h32.57v107.84Zm134.37-23.8c-3.48,8.91-8.27,15.9-14.38,20.99-6.11,5.09-13.07,8.74-20.87,10.94-7.8,2.2-16.11,3.31-24.92,3.31h-.02c-7.13,0-14.05-.33-20.74-1.27-10.98-1.54-21.28-4.19-35.75-10.17V209.26h31.9v50.34c1.52-.83,3.11-1.61,4.83-2.29,4.74-1.86,9.62-3.26,14.62-4.19,5-.93,9.19-1.4,12.58-1.4,19.15,0,33.6,5.72,43.34,17.16,9.74,11.43,14.61,27.74,14.62,48.91,0,13.56-1.75,24.77-5.22,33.67Z"/></svg>